<?xml version="1.0" encoding="UTF-8" standalone="no"?>
<!DOCTYPE svg PUBLIC "-//W3C//DTD SVG 1.1//EN" "http://www.w3.org/Graphics/SVG/1.1/DTD/svg11.dtd">
<svg width="100%" height="100%" viewBox="0 0 953 666" version="1.1" xmlns="http://www.w3.org/2000/svg" xmlns:xlink="http://www.w3.org/1999/xlink" xml:space="preserve" xmlns:serif="http://www.serif.com/" style="fill-rule:evenodd;clip-rule:evenodd;">
    <g transform="matrix(1,0,0,0.998496,1,0.998496)">
        <rect x="-1" y="-1" width="952" height="665" style="fill:rgb(243,244,244);"/>
    </g>
    <g>
        <path id="path1873" d="M11.5,38.869L909.439,38.869" style="fill:none;fill-rule:nonzero;stroke:black;stroke-width:1.47px;"/>
        <path id="path1875" d="M921.108,38.869L909.439,42.582L909.439,35.157L921.108,38.869Z" style="fill-rule:nonzero;"/>
        <rect id="rect1877" x="147.2" y="189.981" width="306.31" height="25.833" style="fill:rgb(255,255,0);stroke:black;stroke-width:1px;stroke-linecap:round;stroke-linejoin:round;"/>
        <rect id="rect2766" x="427.392" y="46.366" width="473.429" height="24.575" style="fill:rgb(255,255,0);stroke:black;stroke-width:1px;stroke-linecap:round;stroke-linejoin:round;"/>
        <rect id="rect2768" x="419.151" y="125.842" width="481.67" height="23.838" style="fill:rgb(255,255,0);stroke:black;stroke-width:1px;stroke-linecap:round;stroke-linejoin:round;"/>
        <rect id="rect2770" x="472.534" y="157.836" width="428.282" height="23.916" style="fill:rgb(255,255,0);stroke:black;stroke-width:1px;stroke-linecap:round;stroke-linejoin:round;"/>
        <rect id="rect2772" x="231.403" y="223.981" width="205.502" height="22.416" style="fill:rgb(255,255,0);stroke:black;stroke-width:1px;stroke-linecap:round;stroke-linejoin:round;"/>
        <rect id="rect2776" x="397.079" y="500.423" width="503.744" height="22.043" style="fill:rgb(0,255,255);stroke:black;stroke-width:1px;stroke-linecap:round;stroke-linejoin:round;"/>
        <rect id="rect4548" x="350.914" y="261.576" width="102.226" height="23.25" style="fill:rgb(255,255,0);stroke:black;stroke-width:1px;stroke-linecap:round;stroke-linejoin:round;"/>
        <rect id="rect4550" x="555.157" y="273.176" width="345.648" height="23.669" style="fill:rgb(255,255,0);stroke:black;stroke-width:1px;stroke-linecap:round;stroke-linejoin:round;"/>
        <rect id="rect5437" x="385.321" y="358.721" width="515.504" height="21.973" style="fill:rgb(127,255,0);stroke:black;stroke-width:1px;stroke-linecap:round;stroke-linejoin:round;"/>
        <rect id="rect5439" x="249.057" y="338.707" width="102.964" height="24.357" style="fill:rgb(255,0,255);stroke:black;stroke-width:1px;stroke-linecap:round;stroke-linejoin:round;"/>
        <rect id="rect5441" x="199.235" y="292.576" width="115.881" height="23.988" style="fill:rgb(255,192,192);stroke:black;stroke-width:1px;stroke-linecap:round;stroke-linejoin:round;"/>
        <rect id="rect5445" x="238.274" y="458.406" width="203.639" height="24.539" style="fill:rgb(255,127,0);stroke:black;stroke-width:1px;stroke-linecap:round;stroke-linejoin:round;"/>
        <rect id="rect5447" x="261.953" y="539.765" width="638.879" height="21.372" style="fill:rgb(0,255,255);stroke:black;stroke-width:1px;stroke-linecap:round;stroke-linejoin:round;"/>
        <rect id="rect5449" x="306.31" y="572.936" width="594.519" height="22.785" style="fill:rgb(0,255,255);stroke:black;stroke-width:1px;stroke-linecap:round;stroke-linejoin:round;"/>
        <rect id="rect5451" x="442.018" y="458.585" width="400.097" height="24.125" style="fill:rgb(0,255,255);stroke:black;stroke-width:1px;stroke-linecap:round;stroke-linejoin:round;"/>
        <rect id="rect5453" x="429.589" y="605.868" width="219.411" height="25.943" style="fill:rgb(0,255,255);stroke:black;stroke-width:1px;stroke-linecap:round;stroke-linejoin:round;"/>
        <path id="path6418" d="M28.691,39.567L28.691,43.349" style="fill:none;fill-rule:nonzero;stroke:black;stroke-width:2.1px;"/>
        <path id="path6426" d="M198.573,39.828L198.573,43.61" style="fill:none;fill-rule:nonzero;stroke:black;stroke-width:2.1px;"/>
        <path id="path6428" d="M368.716,39.828L368.716,43.61" style="fill:none;fill-rule:nonzero;stroke:black;stroke-width:2.1px;"/>
        <path id="path6430" d="M538.599,39.828L538.599,43.61" style="fill:none;fill-rule:nonzero;stroke:black;stroke-width:2.1px;"/>
        <path id="path6432" d="M44.974,39.401L44.974,41.555" style="fill:none;fill-rule:nonzero;stroke:black;stroke-width:1.12px;"/>
        <path id="path6434" d="M62.134,39.401L62.134,41.555" style="fill:none;fill-rule:nonzero;stroke:black;stroke-width:1.12px;"/>
        <path id="path6436" d="M79.11,39.401L79.11,41.555" style="fill:none;fill-rule:nonzero;stroke:black;stroke-width:1.12px;"/>
        <path id="path6438" d="M96.087,39.401L96.087,41.555" style="fill:none;fill-rule:nonzero;stroke:black;stroke-width:1.12px;"/>
        <path id="path6440" d="M113.063,39.401L113.063,41.555" style="fill:none;fill-rule:nonzero;stroke:black;stroke-width:1.12px;"/>
        <path id="path6442" d="M130.039,39.401L130.039,41.555" style="fill:none;fill-rule:nonzero;stroke:black;stroke-width:1.12px;"/>
        <path id="path6444" d="M147.2,39.401L147.2,41.555" style="fill:none;fill-rule:nonzero;stroke:black;stroke-width:1.12px;"/>
        <path id="path6446" d="M164.176,39.401L164.176,41.555" style="fill:none;fill-rule:nonzero;stroke:black;stroke-width:1.12px;"/>
        <path id="path6448" d="M180.968,39.401L180.968,41.555" style="fill:none;fill-rule:nonzero;stroke:black;stroke-width:1.12px;"/>
        <path id="path6463" d="M214.92,39.401L214.92,41.555" style="fill:none;fill-rule:nonzero;stroke:black;stroke-width:1.12px;"/>
        <path id="path6465" d="M232.081,39.401L232.081,41.555" style="fill:none;fill-rule:nonzero;stroke:black;stroke-width:1.12px;"/>
        <path id="path6467" d="M249.057,39.401L249.057,41.555" style="fill:none;fill-rule:nonzero;stroke:black;stroke-width:1.12px;"/>
        <path id="path6469" d="M266.033,39.401L266.033,41.555" style="fill:none;fill-rule:nonzero;stroke:black;stroke-width:1.12px;"/>
        <path id="path6471" d="M283.009,39.401L283.009,41.555" style="fill:none;fill-rule:nonzero;stroke:black;stroke-width:1.12px;"/>
        <path id="path6473" d="M299.985,39.401L299.985,41.555" style="fill:none;fill-rule:nonzero;stroke:black;stroke-width:1.12px;"/>
        <path id="path6475" d="M317.146,39.401L317.146,41.555" style="fill:none;fill-rule:nonzero;stroke:black;stroke-width:1.12px;"/>
        <path id="path6477" d="M334.122,39.401L334.122,41.555" style="fill:none;fill-rule:nonzero;stroke:black;stroke-width:1.12px;"/>
        <path id="path6479" d="M350.914,39.401L350.914,41.555" style="fill:none;fill-rule:nonzero;stroke:black;stroke-width:1.12px;"/>
        <path id="path6483" d="M385.051,39.401L385.051,41.555" style="fill:none;fill-rule:nonzero;stroke:black;stroke-width:1.12px;"/>
        <path id="path6489" d="M436.164,39.401L436.164,41.555" style="fill:none;fill-rule:nonzero;stroke:black;stroke-width:1.12px;"/>
        <path id="path6491" d="M453.14,39.401L453.14,41.555" style="fill:none;fill-rule:nonzero;stroke:black;stroke-width:1.12px;"/>
        <path id="path6493" d="M470.116,39.401L470.116,41.555" style="fill:none;fill-rule:nonzero;stroke:black;stroke-width:1.12px;"/>
        <path id="path6495" d="M487.277,39.401L487.277,41.555" style="fill:none;fill-rule:nonzero;stroke:black;stroke-width:1.12px;"/>
        <path id="path6497" d="M504.253,39.401L504.253,41.555" style="fill:none;fill-rule:nonzero;stroke:black;stroke-width:1.12px;"/>
        <path id="path6499" d="M521.045,39.401L521.045,41.555" style="fill:none;fill-rule:nonzero;stroke:black;stroke-width:1.12px;"/>
        <path id="path6528" d="M554.927,39.401L554.927,41.555" style="fill:none;fill-rule:nonzero;stroke:black;stroke-width:1.12px;"/>
        <path id="path6530" d="M572.088,39.401L572.088,41.555" style="fill:none;fill-rule:nonzero;stroke:black;stroke-width:1.12px;"/>
        <path id="path6532" d="M589.064,39.401L589.064,41.555" style="fill:none;fill-rule:nonzero;stroke:black;stroke-width:1.12px;"/>
        <path id="path6534" d="M605.856,39.401L605.856,41.555" style="fill:none;fill-rule:nonzero;stroke:black;stroke-width:1.12px;"/>
        <g transform="matrix(1,0,0,1,50.2639,557.678)">
            <text x="0px" y="0px" style="font-family:'ArialMT', 'Arial', sans-serif;font-size:20px;">System III &amp; V family</text>
        </g>
        <path id="path6485" d="M402.212,39.401L402.212,41.555" style="fill:none;fill-rule:nonzero;stroke:black;stroke-width:1.12px;"/>
        <path id="path6487" d="M419.188,39.401L419.188,41.555" style="fill:none;fill-rule:nonzero;stroke:black;stroke-width:1.12px;"/>
        <path id="path6623" d="M397.045,189.928L397.045,55.958L415.334,55.958" style="fill:none;fill-rule:nonzero;stroke:black;stroke-width:1px;"/>
        <path id="path6625" d="M397.186,135.988L410.464,135.988" style="fill:none;fill-rule:nonzero;stroke:black;stroke-width:1px;"/>
        <path id="path6627" d="M449.503,168.576L460.469,168.576" style="fill:none;fill-rule:nonzero;stroke:black;stroke-width:1px;"/>
        <path id="path6634" d="M428.112,56.654L414.65,60.67L414.65,52.637L428.112,56.654Z" style="fill-rule:nonzero;"/>
        <path id="path6636" d="M418.522,135.945L405.896,139.962L405.896,131.928L418.522,135.945Z" style="fill-rule:nonzero;"/>
        <path id="path6638" d="M472.627,169.014L460,173.031L460,164.997L472.627,169.014Z" style="fill-rule:nonzero;"/>
        <path id="path6693" d="M124.84,426.221L124.84,202.843L135.917,202.843" style="fill:none;fill-rule:nonzero;stroke:black;stroke-width:1px;"/>
        <path id="path6695" d="M125.101,304.616L188.252,304.616" style="fill:none;fill-rule:nonzero;stroke:black;stroke-width:1px;"/>
        <path id="path6697" d="M125.101,393.602L305.291,393.602" style="fill:none;fill-rule:nonzero;stroke:black;stroke-width:1px;stroke-dasharray:2,6;"/>
        <path id="path6711" d="M147.569,203.04L134.942,207.057L134.942,199.023L147.569,203.04Z" style="fill-rule:nonzero;"/>
        <path id="path6750" d="M199.42,304.713L186.794,308.729L186.794,300.696L199.42,304.713Z" style="fill-rule:nonzero;"/>
        <path id="path6752" d="M316.593,393.653L303.966,397.67L303.966,389.636L316.593,393.653Z" style="fill-rule:nonzero;"/>
        <path id="path6762" d="M323.974,381.517L316.224,381.517L316.224,405.874L502.593,405.874" style="fill:none;fill-rule:nonzero;stroke:black;stroke-width:1px;"/>
        <path id="path6764" d="M363.093,405.874L363.093,375.612L373.795,375.612" style="fill:none;fill-rule:nonzero;stroke:black;stroke-width:1px;stroke-dasharray:2,6;"/>
        <path id="path7651" d="M384.906,375.428L372.28,379.444L372.28,371.411L384.906,375.428Z" style="fill-rule:nonzero;"/>
        <path id="path7654" d="M501.806,405.874L894.94,405.874" style="fill:none;fill-rule:nonzero;stroke:black;stroke-width:1px;"/>
        <path id="path8541" d="M906.715,405.834L894.089,409.851L894.089,401.818L906.715,405.834Z" style="fill-rule:nonzero;"/>
        <g id="path8550" transform="matrix(1,0,0,1,-0.07307,46.8693)">
            <path d="M198.696,169.13L198.696,223.749L338.934,223.749" style="fill:none;fill-rule:nonzero;stroke:black;stroke-width:1px;"/>
        </g>
        <g id="path8552" transform="matrix(1,0,0,1,-0.07307,46.8693)">
            <path d="M213.642,223.749L213.642,234.636" style="fill:none;fill-rule:nonzero;stroke:black;stroke-width:1px;"/>
        </g>
        <g id="path8554" transform="matrix(1,0,0,1,-0.07307,46.8693)">
            <path d="M198.696,187.767L218.284,187.767" style="fill:none;fill-rule:nonzero;stroke:black;stroke-width:1px;"/>
        </g>
        <g id="path8556" transform="matrix(1,0,0,1,-0.07307,46.8693)">
            <path d="M230.908,187.909L218.281,191.926L218.281,183.892L230.908,187.909Z" style="fill-rule:nonzero;"/>
        </g>
        <g id="path8558" transform="matrix(1,0,0,1,-0.07307,46.8693)">
            <path d="M350.928,223.891L338.302,227.908L338.302,219.874L350.928,223.891Z" style="fill-rule:nonzero;"/>
        </g>
        <g id="path8560" transform="matrix(1,0,0,1,-0.07307,46.8693)">
            <path d="M213.788,245.704L209.771,233.078L217.804,233.078L213.788,245.704Z" style="fill-rule:nonzero;"/>
        </g>
        <path id="path8583" d="M453.174,273.537L491.888,273.537L491.888,262.902L894.277,262.902" style="fill:none;fill-rule:nonzero;stroke:black;stroke-width:1px;"/>
        <path id="path8585" d="M491.88,273.364L491.88,284.664L542.656,284.664" style="fill:none;fill-rule:nonzero;stroke:black;stroke-width:1px;"/>
        <path id="path8587" d="M554.852,284.826L542.226,288.843L542.226,280.809L554.852,284.826Z" style="fill-rule:nonzero;"/>
        <path id="path8590" d="M906.225,262.868L893.599,266.885L893.599,258.851L906.225,262.868Z" style="fill-rule:nonzero;"/>
        <path id="path8592" d="M559.389,263.386L562.157,270.213" style="fill:none;fill-rule:nonzero;stroke:black;stroke-width:1px;"/>
        <path id="path9481" d="M568.4,263.386L571.168,270.213" style="fill:none;fill-rule:nonzero;stroke:black;stroke-width:1px;"/>
        <path id="path9501" d="M613.454,263.386L616.222,270.213" style="fill:none;fill-rule:nonzero;stroke:black;stroke-width:1px;"/>
        <path id="path3614" d="M609.057,268.944L605.404,270.156L608.28,272.713L609.057,268.944Z" style="fill-rule:nonzero;"/>
        <path id="path3618" d="M564.002,268.944L560.349,270.156L563.226,272.713L564.002,268.944Z" style="fill-rule:nonzero;"/>
        <path id="path3622" d="M573.013,268.944L569.36,270.156L572.237,272.713L573.013,268.944Z" style="fill-rule:nonzero;"/>
        <path id="path3624" d="M576.694,262.679L579.462,269.507" style="fill:none;fill-rule:nonzero;stroke:black;stroke-width:1px;"/>
        <path id="path3626" d="M581.637,268.815L577.985,270.028L580.861,272.584L581.637,268.815Z" style="fill-rule:nonzero;"/>
        <path id="path3628" d="M586.422,263.408L589.189,270.235" style="fill:none;fill-rule:nonzero;stroke:black;stroke-width:1px;"/>
        <path id="path3630" d="M591.035,268.944L587.382,270.156L590.259,272.713L591.035,268.944Z" style="fill-rule:nonzero;"/>
        <path id="path3632" d="M595.432,263.408L598.2,270.235" style="fill:none;fill-rule:nonzero;stroke:black;stroke-width:1px;"/>
        <path id="path3634" d="M600.046,268.944L596.393,270.156L599.27,272.713L600.046,268.944Z" style="fill-rule:nonzero;"/>
        <path id="path3636" d="M604.443,263.408L607.211,270.235" style="fill:none;fill-rule:nonzero;stroke:black;stroke-width:1px;"/>
        <path id="path3640" d="M618.067,268.944L614.415,270.156L617.291,272.713L618.067,268.944Z" style="fill-rule:nonzero;"/>
        <path id="path3642" d="M663.242,268.944L659.59,270.156L662.466,272.713L663.242,268.944Z" style="fill-rule:nonzero;"/>
        <path id="path3648" d="M622.586,263.408L625.354,270.235" style="fill:none;fill-rule:nonzero;stroke:black;stroke-width:1px;"/>
        <path id="path3650" d="M627.199,268.944L623.546,270.156L626.423,272.713L627.199,268.944Z" style="fill-rule:nonzero;"/>
        <path id="path3652" d="M631.597,263.408L634.364,270.235" style="fill:none;fill-rule:nonzero;stroke:black;stroke-width:1px;"/>
        <path id="path3654" d="M636.21,268.944L632.557,270.156L635.434,272.713L636.21,268.944Z" style="fill-rule:nonzero;"/>
        <path id="path3656" d="M640.607,263.408L643.375,270.235" style="fill:none;fill-rule:nonzero;stroke:black;stroke-width:1px;"/>
        <path id="path3658" d="M645.221,268.944L641.568,270.156L644.445,272.713L645.221,268.944Z" style="fill-rule:nonzero;"/>
        <path id="path3660" d="M649.618,263.408L652.386,270.235" style="fill:none;fill-rule:nonzero;stroke:black;stroke-width:1px;"/>
        <path id="path3662" d="M654.232,268.944L650.579,270.156L653.455,272.713L654.232,268.944Z" style="fill-rule:nonzero;"/>
        <path id="path3664" d="M658.629,263.408L661.397,270.235" style="fill:none;fill-rule:nonzero;stroke:black;stroke-width:1px;"/>
        <path id="path3666" d="M667.64,263.408L670.408,270.235" style="fill:none;fill-rule:nonzero;stroke:black;stroke-width:1px;"/>
        <path id="path3668" d="M672.253,268.944L668.601,270.156L671.477,272.713L672.253,268.944Z" style="fill-rule:nonzero;"/>
        <path id="path3670" d="M681.328,268.944L677.676,270.156L680.552,272.713L681.328,268.944Z" style="fill-rule:nonzero;"/>
        <path id="path3676" d="M676.715,263.408L679.483,270.235" style="fill:none;fill-rule:nonzero;stroke:black;stroke-width:1px;"/>
        <path id="path3980" d="M690.552,268.908L686.899,270.121L689.776,272.678L690.552,268.908L690.552,268.908Z" style="fill-rule:nonzero;"/>
        <path id="path3982" d="M685.938,263.408L688.706,270.235" style="fill:none;fill-rule:nonzero;stroke:black;stroke-width:1px;"/>
        <path id="path9509" d="M352.132,350.805L362.571,350.805L362.571,341.41L894.247,341.41" style="fill:none;fill-rule:nonzero;stroke:black;stroke-width:1px;"/>
        <path id="path9531" d="M362.571,349.934L362.571,363.765L373.27,363.765" style="fill:none;fill-rule:nonzero;stroke:black;stroke-width:1px;"/>
        <path id="path9533" d="M384.541,363.765L371.915,367.782L371.915,359.748L384.541,363.765Z" style="fill-rule:nonzero;"/>
        <path id="path9535" d="M906.267,341.338L893.641,345.355L893.641,337.321L906.267,341.338Z" style="fill-rule:nonzero;"/>
        <path id="path9537" d="M244.72,483.179L244.72,617.828L419.486,617.828" style="fill:none;fill-rule:nonzero;stroke:black;stroke-width:1px;"/>
        <path id="path9541" d="M244.72,583.401L294.124,583.401" style="fill:none;fill-rule:nonzero;stroke:black;stroke-width:1px;"/>
        <path id="path9543" d="M244.698,550.569L259.214,550.569" style="fill:none;fill-rule:nonzero;stroke:black;stroke-width:1px;"/>
        <path id="path9545" d="M262.374,550.741L249.747,554.757L249.747,546.724L262.374,550.741Z" style="fill-rule:nonzero;"/>
        <path id="path9547" d="M305.854,584.188L293.228,588.205L293.228,580.171L305.854,584.188L305.854,584.188Z" style="fill-rule:nonzero;"/>
        <path id="path9551" d="M429.912,617.923L417.286,621.939L417.286,613.906L429.912,617.923Z" style="fill-rule:nonzero;"/>
        <g transform="matrix(1,0,0,1,154.287,206.208)">
            <text x="0px" y="0px" style="font-family:'Arial-BoldMT', 'Arial', sans-serif;font-weight:700;font-size:12px;">BSD (Berkeley Software Distribution)</text>
        </g>
        <g transform="matrix(1,0,0,1,433.96,63.0219)">
            <text x="0px" y="0px" style="font-family:'Arial-BoldMT', 'Arial', sans-serif;font-weight:700;font-size:12px;">FreeBSD</text>
        </g>
        <g transform="matrix(1,0,0,1,425.413,142.129)">
            <text x="0px" y="0px" style="font-family:'Arial-BoldMT', 'Arial', sans-serif;font-weight:700;font-size:12px;">NetBSD</text>
        </g>
        <g transform="matrix(1,0,0,1,479.879,172.704)">
            <text x="0px" y="0px" style="font-family:'Arial-BoldMT', 'Arial', sans-serif;font-weight:700;font-size:12px;">OpenBSD</text>
        </g>
        <g transform="matrix(1,0,0,1,238.487,239.751)">
            <text x="0px" y="0px" style="font-family:'Arial-BoldMT', 'Arial', sans-serif;font-weight:700;font-size:12px;">SunOS</text>
        </g>
        <g transform="matrix(1,0,0,1,408.02,516.021)">
            <text x="0px" y="0px" style="font-family:'Arial-BoldMT', 'Arial', sans-serif;font-weight:700;font-size:12px;">Solaris</text>
        </g>
        <g transform="matrix(1,0,0,1,357.712,276.406)">
            <text x="0px" y="0px" style="font-family:'Arial-BoldMT', 'Arial', sans-serif;font-weight:700;font-size:12px;">NextStep</text>
        </g>
        <g transform="matrix(1,0,0,1,203.664,309.044)">
            <text x="0px" y="0px" style="font-family:'Arial-BoldMT', 'Arial', sans-serif;font-weight:700;font-size:12px;">Xenix OS</text>
        </g>
        <g transform="matrix(1,0,0,1,254.224,354.935)">
            <text x="0px" y="0px" style="font-family:'Arial-BoldMT', 'Arial', sans-serif;font-weight:700;font-size:12px;">GNU</text>
        </g>
        <g id="text6394" transform="matrix(1,0,0,1,393.352,373.709)">
            <text x="0px" y="0px" style="font-family:'Arial-BoldMT', 'Arial', sans-serif;font-weight:700;font-size:14px;">Linux</text>
        </g>
        <g transform="matrix(1,0,0,1,247.972,475.658)">
            <text x="0px" y="0px" style="font-family:'ArialMT', 'Arial', sans-serif;font-size:12px;">Commercial</text>
            <text x="67.342px" y="0px" style="font-family:'Arial-BoldMT', 'Arial', sans-serif;font-weight:700;font-size:12px;">UNIX</text>
        </g>
        <g transform="matrix(1,0,0,1,273.335,555.576)">
            <text x="0px" y="0px" style="font-family:'Arial-BoldMT', 'Arial', sans-serif;font-weight:700;font-size:12px;">HP-UX</text>
        </g>
        <g transform="matrix(1,0,0,1,317.725,589.106)">
            <text x="0px" y="0px" style="font-family:'Arial-BoldMT', 'Arial', sans-serif;font-weight:700;font-size:12px;">AIX</text>
        </g>
        <g transform="matrix(1,0,0,1,452.429,475.79)">
            <text x="0px" y="0px" style="font-family:'Arial-BoldMT', 'Arial', sans-serif;font-weight:700;font-size:12px;">UnixW<tspan x="36.885px 43.559px " y="0px 0px ">ar</tspan>e</text>
        </g>
        <g transform="matrix(1,0,0,1,439.407,622.602)">
            <text x="0px" y="0px" style="font-family:'Arial-BoldMT', 'Arial', sans-serif;font-weight:700;font-size:12px;">IRIX</text>
        </g>
        <g transform="matrix(1,0,0,1,210.433,151.956)">
            <text x="0px" y="0px" style="font-family:'ArialMT', 'Arial', sans-serif;font-size:20px;">BSD family</text>
        </g>
        <g transform="matrix(1,0,0,1,11.7382,34.8386)">
            <text x="0px" y="0px" style="font-family:'ArialMT', 'Arial', sans-serif;font-size:14px;">1970</text>
        </g>
        <g transform="matrix(1,0,0,1,181.881,34.8386)">
            <text x="0px" y="0px" style="font-family:'ArialMT', 'Arial', sans-serif;font-size:14px;">1980</text>
        </g>
        <g transform="matrix(1,0,0,1,351.503,34.8386)">
            <text x="0px" y="0px" style="font-family:'ArialMT', 'Arial', sans-serif;font-size:14px;">1990</text>
        </g>
        <g transform="matrix(1,0,0,1,521.124,34.8386)">
            <text x="0px" y="0px" style="font-family:'ArialMT', 'Arial', sans-serif;font-size:14px;">2000</text>
        </g>
        <g transform="matrix(1,0,0,1,909.477,29.877)">
            <text x="0px" y="0px" style="font-family:'ArialMT', 'Arial', sans-serif;font-size:13px;">T<tspan x="7.458px 10.347px " y="0px 0px ">im</tspan>e</text>
        </g>
        <g transform="matrix(1,0,0,1,202.686,329.814)">
            <text x="0px" y="0px" style="font-family:'ArialMT', 'Arial', sans-serif;font-size:12px;">Microsoft/SCO</text>
        </g>
        <g transform="matrix(1,0,0,1,249.658,376.264)">
            <text x="0px" y="0px" style="font-family:'ArialMT', 'Arial', sans-serif;font-size:12px;">Richard Stallman</text>
        </g>
        <g transform="matrix(1,0,0,1,493.53,260.487)">
            <text x="0px" y="0px" style="font-family:'Arial-BoldMT', 'Arial', sans-serif;font-weight:700;font-size:12px;">Darwin</text>
        </g>
        <g transform="matrix(1,0,0,1,364.587,338.252)">
            <text x="0px" y="0px" style="font-family:'Arial-BoldMT', 'Arial', sans-serif;font-weight:700;font-size:12px;">GNU/Hurd</text>
        </g>
        <g transform="matrix(1,0,0,1,392.14,394.531)">
            <text x="0px" y="0px" style="font-family:'ArialMT', 'Arial', sans-serif;font-size:12px;">Linus <tspan x="31.805px 37.805px 44.479px " y="0px 0px 0px ">Tor</tspan>valds</text>
        </g>
        <g transform="matrix(1,0,0,1,320.116,417.583)">
            <text x="0px" y="0px" style="font-family:'ArialMT', 'Arial', sans-serif;font-size:12px;">Andrew S. <tspan x="58.477px 64.477px 71.15px " y="0px 0px 0px ">Tan</tspan>enbaum</text>
        </g>
        <g transform="matrix(1,0,0,1,322.638,398.184)">
            <text x="0px" y="0px" style="font-family:'Arial-BoldMT', 'Arial', sans-serif;font-weight:700;font-size:12px;">Minix</text>
        </g>
        <g transform="matrix(1,0,0,1,424.902,277.589)">
            <text x="0px" y="0px" style="font-family:'ArialMT', 'Arial', sans-serif;font-size:12px;">3.3</text>
        </g>
        <g transform="matrix(1,0,0,1,640.359,623.258)">
            <text x="-33.363px" y="0px" style="font-family:'ArialMT', 'Arial', sans-serif;font-size:12px;">6.5.30</text>
        </g>
        <g transform="matrix(1,0,0,1,394.923,239.915)">
            <text x="0px" y="0px" style="font-family:'ArialMT', 'Arial', sans-serif;font-size:12px;">4.1.4</text>
        </g>
        <path id="path3600" d="M622.995,39.401L622.995,41.555" style="fill:none;fill-rule:nonzero;stroke:black;stroke-width:1.12px;"/>
        <path id="path3602" d="M639.971,39.401L639.971,41.555" style="fill:none;fill-rule:nonzero;stroke:black;stroke-width:1.12px;"/>
        <path id="path3604" d="M656.763,39.401L656.763,41.555" style="fill:none;fill-rule:nonzero;stroke:black;stroke-width:1.12px;"/>
        <path id="path3608" d="M673.497,39.401L673.497,41.555" style="fill:none;fill-rule:nonzero;stroke:black;stroke-width:1.12px;"/>
        <path id="path3612" d="M690.289,39.401L690.289,41.555" style="fill:none;fill-rule:nonzero;stroke:black;stroke-width:1.12px;"/>
        <path id="path3384" d="M449.705,150.066L450,168.095" style="fill:none;fill-rule:nonzero;stroke:black;stroke-width:1px;"/>
        <path id="path6627-9" d="M372.905,510.826L384.239,511.01" style="fill:none;fill-rule:nonzero;stroke:black;stroke-width:1px;"/>
        <path id="path6638-4" d="M397.157,511.237L384.614,516.55L384.614,505.925L397.157,511.237Z" style="fill-rule:nonzero;"/>
        <path id="path3384-8" d="M373.189,482.794L373.231,510.721" style="fill:none;fill-rule:nonzero;stroke:black;stroke-width:1px;"/>
        <rect id="rect5445-5" x="46.809" y="427.232" width="306.31" height="24.357" style="fill:rgb(255,127,0);stroke:black;stroke-width:1px;stroke-linecap:round;stroke-linejoin:round;"/>
        <g transform="matrix(1,0,0,1,53.6821,443.903)">
            <text x="0px" y="0px" style="font-family:'ArialMT', 'Arial', sans-serif;font-size:12px;">Research</text>
            <text x="54.691px" y="0px" style="font-family:'Arial-BoldMT', 'Arial', sans-serif;font-weight:700;font-size:12px;">UNIX</text>
        </g>
        <g transform="matrix(1,0,0,1,316.508,443.903)">
            <text x="0px" y="0px" style="font-family:'ArialMT', 'Arial', sans-serif;font-size:12px;">10.5</text>
        </g>
        <path id="path3384-8-5" d="M213.677,452.258L213.716,468.495" style="fill:none;fill-rule:nonzero;stroke:black;stroke-width:1px;"/>
        <path id="path6638-4-7" d="M238.332,468.704L225.788,474.017L225.788,463.392L238.332,468.704Z" style="fill-rule:nonzero;"/>
        <path id="path9543-6" d="M213.314,469.093L230.067,469.093" style="fill:none;fill-rule:nonzero;stroke:black;stroke-width:1px;"/>
        <g transform="matrix(1,0,0,1,46.4365,464.896)">
            <text x="0px" y="0px" style="font-family:'ArialMT', 'Arial', sans-serif;font-size:12px;">Bell Labs: Ken <tspan x="80.502px 87.832px " y="0px 0px ">Th</tspan>ompson,</text>
        </g>
        <g id="text6576-8-3" transform="matrix(1,0,0,1,46.3456,479.616)">
            <text x="0px" y="0px" style="font-family:'ArialMT', 'Arial', sans-serif;font-size:12px;">Dennis Ritchie, et al.</text>
        </g>
        <g id="text6576-8-2" transform="matrix(1,0,0,1,147.495,231.34)">
            <text x="0px" y="0px" style="font-family:'ArialMT', 'Arial', sans-serif;font-size:12px;">Bill Joy</text>
        </g>
        <g transform="matrix(1,0,0,1,250.71,498.04)">
            <text x="0px" y="0px" style="font-family:'ArialMT', 'Arial', sans-serif;font-size:12px;">A<tspan x="7.113px 14.443px " y="0px 0px ">T&amp;</tspan>T</text>
        </g>
        <g transform="matrix(1,0,0,1,316.599,608.393)">
            <text x="0px" y="0px" style="font-family:'ArialMT', 'Arial', sans-serif;font-size:12px;">IBM</text>
        </g>
        <g transform="matrix(1,0,0,1,440.634,644.853)">
            <text x="0px" y="0px" style="font-family:'ArialMT', 'Arial', sans-serif;font-size:12px;">SGI</text>
        </g>
        <g transform="matrix(1,0,0,1,449.665,495.532)">
            <text x="0px" y="0px" style="font-family:'ArialMT', 'Arial', sans-serif;font-size:12px;">Univel/SCO/Xinuos</text>
        </g>
        <path id="path6430-1" d="M707.275,39.776L707.275,43.558" style="fill:none;fill-rule:nonzero;stroke:black;stroke-width:2.1px;"/>
        <g transform="matrix(1,0,0,1,690.338,34.8958)">
            <text x="0px" y="0px" style="font-family:'ArialMT', 'Arial', sans-serif;font-size:14px;">2010</text>
        </g>
        <g transform="matrix(1,0,0,1,425.453,207.134)">
            <text x="0px" y="0px" style="font-family:'ArialMT', 'Arial', sans-serif;font-size:12px;">4.4</text>
        </g>
        <path id="path3666-6" d="M694.594,263.306L697.362,270.133" style="fill:none;fill-rule:nonzero;stroke:black;stroke-width:1px;"/>
        <path id="path3668-7" d="M699.208,268.842L695.555,270.054L698.432,272.611L699.208,268.842Z" style="fill-rule:nonzero;"/>
        <path id="path3670-9" d="M708.283,268.842L704.63,270.054L707.507,272.611L708.283,268.842Z" style="fill-rule:nonzero;"/>
        <path id="path3676-6" d="M703.67,263.306L706.437,270.133" style="fill:none;fill-rule:nonzero;stroke:black;stroke-width:1px;"/>
        <path id="path3980-8" d="M717.506,268.806L713.853,270.018L716.73,272.575L717.506,268.806Z" style="fill-rule:nonzero;"/>
        <path id="path3982-3" d="M712.893,263.306L715.661,270.133" style="fill:none;fill-rule:nonzero;stroke:black;stroke-width:1px;"/>
        <path id="path6752-3" d="M248.42,350.341L235.793,354.358L235.793,346.325L248.42,350.341Z" style="fill-rule:nonzero;"/>
        <path id="path4371" d="M235.665,350.811L124.881,350.796" style="fill:none;fill-rule:nonzero;stroke:black;stroke-width:1px;stroke-dasharray:2,6;"/>
        <g id="svg_15" transform="matrix(1,0,0,1,892.218,174.869)">
            <text x="-19.462px" y="0px" style="font-family:'ArialMT', 'Arial', sans-serif;font-size:14px;">7.0</text>
        </g>
        <g id="svg_18" transform="matrix(1,0,0,1,892.218,62.8693)">
            <text x="-27.248px" y="0px" style="font-family:'ArialMT', 'Arial', sans-serif;font-size:14px;">12.2</text>
        </g>
        <g id="svg_20" transform="matrix(1,0,0,1,586.927,288.869)">
            <text x="-24.124px" y="0px" style="font-family:'Arial-BoldMT', 'Arial', sans-serif;font-weight:700;font-size:14px;">macOS</text>
        </g>
        <g id="svg_21" transform="matrix(1,0,0,1,892.218,289.869)">
            <text x="-26.209px" y="0px" style="font-family:'ArialMT', 'Arial', sans-serif;font-size:14px;">1<tspan x="-19.462px -11.676px " y="0px 0px ">1.</tspan>6</text>
        </g>
        <g id="svg_24" transform="matrix(1,0,0,1,892.218,142.869)">
            <text x="-19.462px" y="0px" style="font-family:'ArialMT', 'Arial', sans-serif;font-size:14px;">9.2</text>
        </g>
        <g id="svg_25" transform="matrix(1,0,0,1,892.218,516.869)">
            <text x="-26.209px" y="0px" style="font-family:'ArialMT', 'Arial', sans-serif;font-size:14px;">1<tspan x="-19.462px -11.676px " y="0px 0px ">1.</tspan>4</text>
        </g>
        <g id="svg_30" transform="matrix(1,0,0,1,892.218,588.869)">
            <text x="-19.462px" y="0px" style="font-family:'ArialMT', 'Arial', sans-serif;font-size:14px;">7.2</text>
        </g>
        <g id="svg_31" transform="matrix(1,0,0,1,892.218,554.869)">
            <text x="-36.319px" y="0px" style="font-family:'ArialMT', 'Arial', sans-serif;font-size:14px;">1<tspan x="-29.572px " y="0px ">1</tspan></text>
            <text x="-21.786px" y="0px" style="font-family:'Arial-ItalicMT', 'Arial', sans-serif;font-style:italic;font-size:14px;">i</text>
            <text x="-14.786px" y="0px" style="font-family:'ArialMT', 'Arial', sans-serif;font-size:14px;">v3</text>
        </g>
        <g id="svg_35" transform="matrix(1,0,0,1,892.218,373.869)">
            <text x="-27.248px" y="0px" style="font-family:'ArialMT', 'Arial', sans-serif;font-size:14px;">5.15</text>
        </g>
        <g id="svg_36" transform="matrix(1,0,0,1,892.218,400.869)">
            <text x="-19.462px" y="0px" style="font-family:'ArialMT', 'Arial', sans-serif;font-size:14px;">3.4</text>
        </g>
        <path id="path8592-7" d="M721.618,263.309L724.386,270.136" style="fill:none;fill-rule:nonzero;stroke:black;stroke-width:1px;"/>
        <path id="path9481-5" d="M730.629,263.309L733.397,270.136" style="fill:none;fill-rule:nonzero;stroke:black;stroke-width:1px;"/>
        <path id="path9501-3" d="M775.684,263.309L778.452,270.136" style="fill:none;fill-rule:nonzero;stroke:black;stroke-width:1px;"/>
        <path id="path3614-5" d="M771.286,268.867L767.634,270.079L770.51,272.636L771.286,268.867Z" style="fill-rule:nonzero;"/>
        <path id="path3618-6" d="M726.232,268.867L722.579,270.079L725.455,272.636L726.232,268.867Z" style="fill-rule:nonzero;"/>
        <path id="path3622-2" d="M735.243,268.867L731.59,270.079L734.466,272.636L735.243,268.867Z" style="fill-rule:nonzero;"/>
        <path id="path3624-9" d="M738.923,262.602L741.691,269.43" style="fill:none;fill-rule:nonzero;stroke:black;stroke-width:1px;"/>
        <path id="path3626-1" d="M743.867,268.738L740.214,269.951L743.091,272.507L743.867,268.738Z" style="fill-rule:nonzero;"/>
        <path id="path3628-2" d="M748.651,263.331L751.419,270.158" style="fill:none;fill-rule:nonzero;stroke:black;stroke-width:1px;"/>
        <path id="path3630-7" d="M753.264,268.867L749.612,270.079L752.488,272.636L753.264,268.867Z" style="fill-rule:nonzero;"/>
        <path id="path3632-0" d="M757.662,263.331L760.43,270.158" style="fill:none;fill-rule:nonzero;stroke:black;stroke-width:1px;"/>
        <path id="path3634-9" d="M762.275,268.867L758.623,270.079L761.499,272.636L762.275,268.867Z" style="fill-rule:nonzero;"/>
        <path id="path3636-3" d="M766.673,263.331L769.441,270.158" style="fill:none;fill-rule:nonzero;stroke:black;stroke-width:1px;"/>
        <path id="path3640-6" d="M780.297,268.867L776.645,270.079L779.521,272.636L780.297,268.867Z" style="fill-rule:nonzero;"/>
        <path id="path3642-0" d="M825.472,268.867L821.819,270.079L824.696,272.636L825.472,268.867Z" style="fill-rule:nonzero;"/>
        <path id="path3648-6" d="M784.815,263.331L787.583,270.158" style="fill:none;fill-rule:nonzero;stroke:black;stroke-width:1px;"/>
        <path id="path3650-2" d="M789.428,268.867L785.776,270.079L788.652,272.636L789.428,268.867Z" style="fill-rule:nonzero;"/>
        <path id="path3652-6" d="M793.826,263.331L796.594,270.158" style="fill:none;fill-rule:nonzero;stroke:black;stroke-width:1px;"/>
        <path id="path3654-1" d="M798.439,268.867L794.787,270.079L797.663,272.636L798.439,268.867Z" style="fill-rule:nonzero;"/>
        <path id="path3656-8" d="M802.837,263.331L805.605,270.158" style="fill:none;fill-rule:nonzero;stroke:black;stroke-width:1px;"/>
        <path id="path3658-7" d="M807.45,268.867L803.798,270.079L806.674,272.636L807.45,268.867Z" style="fill-rule:nonzero;"/>
        <path id="path3660-9" d="M811.848,263.331L814.616,270.158" style="fill:none;fill-rule:nonzero;stroke:black;stroke-width:1px;"/>
        <path id="path3662-2" d="M816.461,268.867L812.809,270.079L815.685,272.636L816.461,268.867Z" style="fill-rule:nonzero;"/>
        <path id="path3664-0" d="M820.859,263.331L823.627,270.158" style="fill:none;fill-rule:nonzero;stroke:black;stroke-width:1px;"/>
        <g id="svg_21-1" transform="matrix(1,0,0,1,892.218,256.966)">
            <text x="-27.248px" y="0px" style="font-family:'ArialMT', 'Arial', sans-serif;font-size:14px;">21.0</text>
        </g>
        <g transform="matrix(1,0,0,1,403.927,534.869)">
            <text x="0px" y="0px" style="font-family:'ArialMT', 'Arial', sans-serif;font-size:12px;">Sun/Oracle</text>
        </g>
        <g transform="matrix(1,0,0,1,560.715,309.371)">
            <text x="0px" y="0px" style="font-family:'ArialMT', 'Arial', sans-serif;font-size:12px;">Apple</text>
        </g>
        <g transform="matrix(1,0,0,1,479.32,196.843)">
            <text x="0px" y="0px" style="font-family:'ArialMT', 'Arial', sans-serif;font-size:12px;">Theo de Raadt</text>
        </g>
        <g id="svg_21-1-9" transform="matrix(1,0,0,1,892.218,337.632)">
            <text x="-19.462px" y="0px" style="font-family:'ArialMT', 'Arial', sans-serif;font-size:14px;">0.9</text>
        </g>
        <rect id="rect2768-5" x="617.277" y="78.982" width="283.513" height="23.525" style="fill:rgb(255,255,0);stroke:black;stroke-width:1px;stroke-linecap:round;stroke-linejoin:round;"/>
        <g transform="matrix(1,0,0,1,622.636,117.843)">
            <text x="0px" y="0px" style="font-family:'ArialMT', 'Arial', sans-serif;font-size:12px;">Matthew Dillon</text>
        </g>
        <g transform="matrix(1,0,0,1,623.49,94.7375)">
            <text x="0px" y="0px" style="font-family:'Arial-BoldMT', 'Arial', sans-serif;font-weight:700;font-size:12px;">DragonFly BSD</text>
        </g>
        <g id="svg_18-9" transform="matrix(1,0,0,1,892.218,95.9655)">
            <text x="-19.462px" y="0px" style="font-family:'ArialMT', 'Arial', sans-serif;font-size:14px;">6.0</text>
        </g>
        <path id="path6623-1" d="M594.949,90.854L594.949,71.384" style="fill:none;fill-rule:nonzero;stroke:black;stroke-width:1px;"/>
        <path id="path6625-2" d="M595.509,90.412L608.787,90.412" style="fill:none;fill-rule:nonzero;stroke:black;stroke-width:1px;"/>
        <path id="path6636-7" d="M616.845,90.369L604.219,94.386L604.219,86.352L616.845,90.369Z" style="fill-rule:nonzero;"/>
        <path id="path766" d="M707.275,39.776L707.275,43.558" style="fill:none;fill-rule:nonzero;stroke:black;stroke-width:2.1px;"/>
        <path id="path768" d="M723.603,39.349L723.603,41.503" style="fill:none;fill-rule:nonzero;stroke:black;stroke-width:1.12px;"/>
        <path id="path770" d="M740.763,39.349L740.763,41.503" style="fill:none;fill-rule:nonzero;stroke:black;stroke-width:1.12px;"/>
        <path id="path772" d="M757.74,39.349L757.74,41.503" style="fill:none;fill-rule:nonzero;stroke:black;stroke-width:1.12px;"/>
        <path id="path774" d="M774.531,39.349L774.531,41.503" style="fill:none;fill-rule:nonzero;stroke:black;stroke-width:1.12px;"/>
        <path id="path776" d="M791.671,39.349L791.671,41.503" style="fill:none;fill-rule:nonzero;stroke:black;stroke-width:1.12px;"/>
        <path id="path778" d="M808.647,39.349L808.647,41.503" style="fill:none;fill-rule:nonzero;stroke:black;stroke-width:1.12px;"/>
        <path id="path780" d="M825.439,39.349L825.439,41.503" style="fill:none;fill-rule:nonzero;stroke:black;stroke-width:1.12px;"/>
        <path id="path782" d="M842.173,39.349L842.173,41.503" style="fill:none;fill-rule:nonzero;stroke:black;stroke-width:1.12px;"/>
        <path id="path784" d="M858.965,39.349L858.965,41.503" style="fill:none;fill-rule:nonzero;stroke:black;stroke-width:1.12px;"/>
        <path id="path786" d="M875.95,39.724L875.95,43.506" style="fill:none;fill-rule:nonzero;stroke:black;stroke-width:2.1px;"/>
        <g transform="matrix(1,0,0,1,859.013,34.8436)">
            <text x="0px" y="0px" style="font-family:'ArialMT', 'Arial', sans-serif;font-size:14px;">2020</text>
        </g>
        <path id="path798" d="M875.95,39.724L875.95,43.506" style="fill:none;fill-rule:nonzero;stroke:black;stroke-width:2.1px;"/>
        <path id="path800" d="M875.95,39.724L875.95,43.506" style="fill:none;fill-rule:nonzero;stroke:black;stroke-width:2.1px;"/>
        <path id="path802" d="M892.278,39.297L892.278,41.45" style="fill:none;fill-rule:nonzero;stroke:black;stroke-width:1.12px;"/>
        <path id="path1667" d="M834.695,268.831L831.043,270.044L833.919,272.601L834.695,268.831L834.695,268.831Z" style="fill-rule:nonzero;"/>
        <path id="path1669" d="M830.082,263.331L832.85,270.158" style="fill:none;fill-rule:nonzero;stroke:black;stroke-width:1px;"/>
        <path id="path1671" d="M838.738,263.229L841.506,270.056" style="fill:none;fill-rule:nonzero;stroke:black;stroke-width:1px;"/>
        <path id="path1673" d="M843.351,268.765L839.699,269.977L842.575,272.534L843.351,268.765Z" style="fill-rule:nonzero;"/>
        <path id="path1675" d="M852.426,268.765L848.774,269.977L851.65,272.534L852.426,268.765Z" style="fill-rule:nonzero;"/>
        <path id="path1677" d="M847.813,263.229L850.581,270.056" style="fill:none;fill-rule:nonzero;stroke:black;stroke-width:1px;"/>
        <path id="path1679" d="M861.649,268.729L857.997,269.941L860.873,272.498L861.649,268.729Z" style="fill-rule:nonzero;"/>
        <path id="path1681" d="M857.036,263.229L859.804,270.056" style="fill:none;fill-rule:nonzero;stroke:black;stroke-width:1px;"/>
        <path id="path1683" d="M865.762,263.232L868.53,270.059" style="fill:none;fill-rule:nonzero;stroke:black;stroke-width:1px;"/>
        <path id="path1685" d="M874.773,263.232L877.541,270.059" style="fill:none;fill-rule:nonzero;stroke:black;stroke-width:1px;"/>
        <path id="path1691" d="M870.375,268.79L866.723,270.002L869.599,272.559L870.375,268.79Z" style="fill-rule:nonzero;"/>
        <path id="path1693" d="M879.386,268.79L875.733,270.002L878.61,272.559L879.386,268.79Z" style="fill-rule:nonzero;"/>
        <path id="path1695" d="M883.067,262.525L885.835,269.353" style="fill:none;fill-rule:nonzero;stroke:black;stroke-width:1px;"/>
        <path id="path1697" d="M888.01,268.661L884.358,269.874L887.234,272.431L888.01,268.661Z" style="fill-rule:nonzero;"/>
        <g transform="matrix(1,0,0,1,833.093,475.75)">
            <text x="-6.674px" y="0px" style="font-family:'ArialMT', 'Arial', sans-serif;font-size:12px;">7</text>
        </g>
    </g>
</svg>
